name rise49.8558peak67.6521fall70.3087.mot
datacolumns 19
datarows 27
range 20.02159100000000 20.06492100000000
endheader
time	ground_force1_vx	ground_force1_vy	ground_force1_vz	ground_force1_px	ground_force1_py	ground_force1_pz	ground_force2_vx	ground_force2_vy	ground_force2_vz	ground_force2_px	ground_force2_py	ground_force2_pz	ground_torque1_x	ground_torque1_y	ground_torque1_z	ground_torque2_x	ground_torque2_y	ground_torque2_z	
20.02159100000000	62.07192800000000	753.79412800000000	63.44625400000000	0.39702600000000	0.00000000000000	0.13994100000000	0.00000000000000	0.00000000000000	0.00000000000000	0.00000000000000	0.00000000000000	0.00000000000000	0.00000000000000	30.89632000000000	0.00000000000000	0.00000000000000	0.00000000000000	0.00000000000000	
20.02325700000000	61.38080300000000	755.27643499999999	63.58355900000000	0.39523200000000	0.00000000000000	0.13998000000000	0.00000000000000	0.00000000000000	0.00000000000000	0.00000000000000	0.00000000000000	0.00000000000000	0.00000000000000	30.96879400000000	0.00000000000000	0.00000000000000	0.00000000000000	0.00000000000000	
20.02492000000000	60.70048400000000	756.71983100000000	63.72616300000000	0.39344100000000	0.00000000000000	0.14001900000000	0.00000000000000	0.00000000000000	0.00000000000000	0.00000000000000	0.00000000000000	0.00000000000000	0.00000000000000	31.04346700000000	0.00000000000000	0.00000000000000	0.00000000000000	0.00000000000000	
20.02659300000000	60.03093100000000	758.12217299999998	63.87318700000000	0.39165400000000	0.00000000000000	0.14005900000000	0.00000000000000	0.00000000000000	0.00000000000000	0.00000000000000	0.00000000000000	0.00000000000000	0.00000000000000	31.11981500000000	0.00000000000000	0.00000000000000	0.00000000000000	0.00000000000000	
20.02825700000000	59.37201900000000	759.48123199999998	64.02368600000000	0.38987200000000	0.00000000000000	0.14010000000000	0.00000000000000	0.00000000000000	0.00000000000000	0.00000000000000	0.00000000000000	0.00000000000000	0.00000000000000	31.19728400000000	0.00000000000000	0.00000000000000	0.00000000000000	0.00000000000000	
20.02992600000000	58.72354500000000	760.79471100000001	64.17665500000000	0.38809600000000	0.00000000000000	0.14014100000000	0.00000000000000	0.00000000000000	0.00000000000000	0.00000000000000	0.00000000000000	0.00000000000000	0.00000000000000	31.27528900000000	0.00000000000000	0.00000000000000	0.00000000000000	0.00000000000000	
20.03159500000000	58.08523300000000	762.06026499999996	64.33103500000000	0.38632900000000	0.00000000000000	0.14018300000000	0.00000000000000	0.00000000000000	0.00000000000000	0.00000000000000	0.00000000000000	0.00000000000000	0.00000000000000	31.35322500000000	0.00000000000000	0.00000000000000	0.00000000000000	0.00000000000000	
20.03325300000000	57.45673700000000	763.27551800000003	64.48572400000000	0.38457000000000	0.00000000000000	0.14022400000000	0.00000000000000	0.00000000000000	0.00000000000000	0.00000000000000	0.00000000000000	0.00000000000000	0.00000000000000	31.43047000000000	0.00000000000000	0.00000000000000	0.00000000000000	0.00000000000000	
20.03492600000000	56.83765000000000	764.43808600000000	64.63958200000000	0.38282100000000	0.00000000000000	0.14026500000000	0.00000000000000	0.00000000000000	0.00000000000000	0.00000000000000	0.00000000000000	0.00000000000000	0.00000000000000	31.50638800000000	0.00000000000000	0.00000000000000	0.00000000000000	0.00000000000000	
20.03659300000000	56.22751000000000	765.54558999999995	64.79144100000001	0.38108300000000	0.00000000000000	0.14030600000000	0.00000000000000	0.00000000000000	0.00000000000000	0.00000000000000	0.00000000000000	0.00000000000000	0.00000000000000	31.58033600000000	0.00000000000000	0.00000000000000	0.00000000000000	0.00000000000000	
20.03825400000000	55.62580000000000	766.59568000000002	64.94011200000000	0.37935700000000	0.00000000000000	0.14034600000000	0.00000000000000	0.00000000000000	0.00000000000000	0.00000000000000	0.00000000000000	0.00000000000000	0.00000000000000	31.65166900000000	0.00000000000000	0.00000000000000	0.00000000000000	0.00000000000000	
20.03992100000000	55.03196100000000	767.58604800000001	65.08439300000001	0.37764300000000	0.00000000000000	0.14038500000000	0.00000000000000	0.00000000000000	0.00000000000000	0.00000000000000	0.00000000000000	0.00000000000000	0.00000000000000	31.71974200000000	0.00000000000000	0.00000000000000	0.00000000000000	0.00000000000000	
20.04159100000000	54.44539500000000	768.51444500000002	65.22307700000000	0.37594300000000	0.00000000000000	0.14042300000000	0.00000000000000	0.00000000000000	0.00000000000000	0.00000000000000	0.00000000000000	0.00000000000000	0.00000000000000	31.78391800000000	0.00000000000000	0.00000000000000	0.00000000000000	0.00000000000000	
20.04325300000000	53.86547100000000	769.37870199999998	65.35496100000000	0.37425700000000	0.00000000000000	0.14046000000000	0.00000000000000	0.00000000000000	0.00000000000000	0.00000000000000	0.00000000000000	0.00000000000000	0.00000000000000	31.84356900000000	0.00000000000000	0.00000000000000	0.00000000000000	0.00000000000000	
20.04492400000000	53.29153000000000	770.17673900000000	65.47885300000000	0.37258500000000	0.00000000000000	0.14049600000000	0.00000000000000	0.00000000000000	0.00000000000000	0.00000000000000	0.00000000000000	0.00000000000000	0.00000000000000	31.89808200000000	0.00000000000000	0.00000000000000	0.00000000000000	0.00000000000000	
20.04659500000000	52.72289400000000	770.90658299999996	65.59358000000000	0.37092800000000	0.00000000000000	0.14053000000000	0.00000000000000	0.00000000000000	0.00000000000000	0.00000000000000	0.00000000000000	0.00000000000000	0.00000000000000	31.94686300000000	0.00000000000000	0.00000000000000	0.00000000000000	0.00000000000000	
20.04825900000000	52.15887000000000	771.56637999999998	65.69799500000001	0.36928700000000	0.00000000000000	0.14056200000000	0.00000000000000	0.00000000000000	0.00000000000000	0.00000000000000	0.00000000000000	0.00000000000000	0.00000000000000	31.98934000000000	0.00000000000000	0.00000000000000	0.00000000000000	0.00000000000000	
20.04992700000000	51.59875600000000	772.15440999999998	65.79098300000000	0.36766200000000	0.00000000000000	0.14059200000000	0.00000000000000	0.00000000000000	0.00000000000000	0.00000000000000	0.00000000000000	0.00000000000000	0.00000000000000	32.02496800000000	0.00000000000000	0.00000000000000	0.00000000000000	0.00000000000000	
20.05159000000000	51.04184800000000	772.66909499999997	65.87147200000000	0.36605200000000	0.00000000000000	0.14062000000000	0.00000000000000	0.00000000000000	0.00000000000000	0.00000000000000	0.00000000000000	0.00000000000000	0.00000000000000	32.05323000000000	0.00000000000000	0.00000000000000	0.00000000000000	0.00000000000000	
20.05326100000000	50.48744200000000	773.10901500000000	65.93843300000000	0.36446000000000	0.00000000000000	0.14064700000000	0.00000000000000	0.00000000000000	0.00000000000000	0.00000000000000	0.00000000000000	0.00000000000000	0.00000000000000	32.07364100000000	0.00000000000000	0.00000000000000	0.00000000000000	0.00000000000000	
20.05492700000000	49.93484400000000	773.47290899999996	65.99089300000000	0.36288400000000	0.00000000000000	0.14067000000000	0.00000000000000	0.00000000000000	0.00000000000000	0.00000000000000	0.00000000000000	0.00000000000000	0.00000000000000	32.08575200000000	0.00000000000000	0.00000000000000	0.00000000000000	0.00000000000000	
20.05659000000000	49.38337400000000	773.75969199999997	66.02793400000000	0.36132500000000	0.00000000000000	0.14069200000000	0.00000000000000	0.00000000000000	0.00000000000000	0.00000000000000	0.00000000000000	0.00000000000000	0.00000000000000	32.08915000000000	0.00000000000000	0.00000000000000	0.00000000000000	0.00000000000000	
20.05825400000000	48.83236700000000	773.96845900000005	66.04870400000000	0.35978300000000	0.00000000000000	0.14071000000000	0.00000000000000	0.00000000000000	0.00000000000000	0.00000000000000	0.00000000000000	0.00000000000000	0.00000000000000	32.08346200000000	0.00000000000000	0.00000000000000	0.00000000000000	0.00000000000000	
20.05992000000000	48.28118200000000	774.09848899999997	66.05242000000000	0.35825800000000	0.00000000000000	0.14072600000000	0.00000000000000	0.00000000000000	0.00000000000000	0.00000000000000	0.00000000000000	0.00000000000000	0.00000000000000	32.06835700000000	0.00000000000000	0.00000000000000	0.00000000000000	0.00000000000000	
20.06159100000000	47.72920700000000	774.14925400000004	66.03836800000001	0.35674900000000	0.00000000000000	0.14074000000000	0.00000000000000	0.00000000000000	0.00000000000000	0.00000000000000	0.00000000000000	0.00000000000000	0.00000000000000	32.04354600000000	0.00000000000000	0.00000000000000	0.00000000000000	0.00000000000000	
20.06325800000000	47.17585800000000	774.12042099999996	66.00591500000000	0.35525800000000	0.00000000000000	0.14075000000000	0.00000000000000	0.00000000000000	0.00000000000000	0.00000000000000	0.00000000000000	0.00000000000000	0.00000000000000	32.00878400000000	0.00000000000000	0.00000000000000	0.00000000000000	0.00000000000000	
20.06492100000000	46.62058800000000	774.01185699999996	65.95450500000000	0.35378400000000	0.00000000000000	0.14075800000000	0.00000000000000	0.00000000000000	0.00000000000000	0.00000000000000	0.00000000000000	0.00000000000000	0.00000000000000	31.96387300000000	0.00000000000000	0.00000000000000	0.00000000000000	0.00000000000000	
